<svg id="Capa_1" data-name="Capa 1" xmlns="http://www.w3.org/2000/svg" viewBox="0 0 717.87 123.92"><defs><style>.cls-1{fill:#fff;stroke:#fff;stroke-width:4.64px;}.cls-1,.cls-2{stroke-miterlimit:10;}.cls-2{fill:#2b3180;stroke:#2b3180;stroke-width:10px;}</style></defs><path class="cls-1" d="M48.65,14.93H60l41.34,91.3H90.12l-8.87-20h-54l-8.87,20H7.17Zm28.43,62-22.82-51-22.7,51Z"/><path class="cls-1" d="M119.34,79C119.21,92.8,131.08,98.53,147,98.53S171.64,92.67,171.64,83c0-11.86-13-14-28.3-17.86-16.69-4.18-33-9-33-26.74,0-15.39,12.39-25,33.13-25,20.21,0,35.87,9.13,35.87,28.82H169.16c.13-13.69-10.82-19.56-25.56-19.56S120.65,28.5,120.65,38c0,11.61,12.26,14.21,25.56,17.61,18.91,4.95,35.73,9.39,35.73,26.86,0,15.65-13.3,25.3-35.08,25.3-21.26,0-37.69-9.13-37.69-28.82Z"/><path class="cls-1" d="M214.81,14.93v91.3h-10V14.93Z"/><path class="cls-2" d="M247.94,79c-.13,13.83,11.74,19.56,27.65,19.56S300.24,92.67,300.24,83c0-11.86-13-14-28.3-17.86-16.7-4.18-33-9-33-26.74,0-15.39,12.39-25,33.13-25,20.21,0,35.86,9.13,35.86,28.82H297.76c.13-13.69-10.82-19.56-25.56-19.56s-23,5.87-23,15.39c0,11.61,12.26,14.21,25.57,17.61,18.91,4.95,35.73,9.39,35.73,26.86,0,15.65-13.3,25.3-35.08,25.3-21.26,0-37.69-9.13-37.69-28.82Z"/><path class="cls-2" d="M336.63,79c-.13,13.83,11.74,19.56,27.65,19.56S388.93,92.67,388.93,83c0-11.86-13-14-28.3-17.86-16.7-4.18-33-9-33-26.74,0-15.39,12.39-25,33.13-25,20.21,0,35.86,9.13,35.86,28.82H386.45c.13-13.69-10.82-19.56-25.56-19.56s-23,5.87-23,15.39c0,11.61,12.26,14.21,25.57,17.61,18.91,4.95,35.73,9.39,35.73,26.86,0,15.65-13.3,25.3-35.08,25.3-21.26,0-37.69-9.13-37.69-28.82Z"/><path class="cls-1" d="M408.63,24.32V14.93h76.55v9.39H451.93v81.91H441.88V24.32Z"/><path class="cls-1" d="M514.14,14.93v91.3h-10V14.93Z"/><path class="cls-1" d="M543.61,14.93h63.13v9.39H553.66V60.06h48.25v9.39H553.66v36.78h-10Z"/><path class="cls-1" d="M617.7,14.93H630l32.47,47.74,32.48-47.74h12.26L667.52,72.84v33.39H657.34V72.84Z"/></svg>