<svg id="Capa_1" data-name="Capa 1" xmlns="http://www.w3.org/2000/svg" viewBox="0 0 841.89 209.18"><defs><style>.cls-1{fill:#2d2e83;stroke:#2d2e83;stroke-width:4.64px;}.cls-1,.cls-2{stroke-miterlimit:10;}.cls-2{fill:#d31035;stroke:#d31035;stroke-width:10px;}</style></defs><path class="cls-1" d="M125.06,52.59H136.4l41.35,91.3H166.53l-8.87-20h-54l-8.87,20H83.58Zm28.43,62-22.83-51-22.69,51Z"/><path class="cls-1" d="M195.75,116.63c-.13,13.82,11.74,19.56,27.65,19.56s24.65-5.87,24.65-15.52c0-11.87-13-14-28.3-17.86-16.7-4.18-33-9-33-26.74,0-15.39,12.39-25,33.13-25,20.21,0,35.86,9.13,35.86,28.82H245.57c.13-13.69-10.82-19.56-25.56-19.56s-23,5.87-23,15.39c0,11.61,12.26,14.21,25.57,17.6,18.91,5,35.73,9.4,35.73,26.87,0,15.65-13.3,25.3-35.08,25.3-21.26,0-37.69-9.13-37.69-28.82Z"/><path class="cls-1" d="M291.22,52.59v91.3h-10V52.59Z"/><path class="cls-2" d="M324.35,116.63c-.13,13.82,11.74,19.56,27.65,19.56s24.65-5.87,24.65-15.52c0-11.87-13-14-28.3-17.86-16.7-4.18-33-9-33-26.74,0-15.39,12.39-25,33.13-25,20.21,0,35.86,9.13,35.86,28.82H374.17c.13-13.69-10.83-19.56-25.56-19.56s-23,5.87-23,15.39c0,11.61,12.26,14.21,25.57,17.6,18.91,5,35.73,9.4,35.73,26.87,0,15.65-13.3,25.3-35.08,25.3-21.26,0-37.69-9.13-37.69-28.82Z"/><path class="cls-2" d="M413,116.63c-.13,13.82,11.74,19.56,27.65,19.56s24.65-5.87,24.65-15.52c0-11.87-13-14-28.3-17.86-16.7-4.18-33-9-33-26.74,0-15.39,12.39-25,33.13-25C457.38,51,473,60.16,473,79.85H462.86C463,66.16,452,60.29,437.3,60.29s-23,5.87-23,15.39c0,11.61,12.26,14.21,25.57,17.6,18.91,5,35.73,9.4,35.73,26.87,0,15.65-13.3,25.3-35.08,25.3-21.26,0-37.69-9.13-37.69-28.82Z"/><path class="cls-1" d="M485,62V52.59h76.56V62H528.33v81.91h-10V62Z"/><path class="cls-1" d="M590.55,52.59v91.3h-10V52.59Z"/><path class="cls-1" d="M620,52.59h63.13V62H630.06V97.72h48.26v9.39H630.06v36.78H620Z"/><path class="cls-1" d="M694.1,52.59h12.26l32.48,47.74,32.47-47.74h12.26L743.93,110.5v33.39H733.75V110.5Z"/></svg>