<svg id="Capa_1" data-name="Capa 1" xmlns="http://www.w3.org/2000/svg" viewBox="0 0 718.01 114.82"><defs><style>.cls-1{fill:#2d2e83;stroke:#2d2e83;stroke-width:4.64px;}.cls-1,.cls-2{stroke-miterlimit:10;}.cls-2{fill:#d31035;stroke:#d31035;stroke-width:10px;}</style></defs><path class="cls-1" d="M52.32,11.05H63.67L105,102.34H93.79l-8.86-20h-54l-8.87,20H10.85ZM80.75,73,57.93,22,35.23,73Z"/><path class="cls-1" d="M123,75.08c-.13,13.83,11.74,19.57,27.65,19.57s24.65-5.87,24.65-15.52c0-11.87-13-14-28.3-17.87-16.69-4.18-33-9-33-26.74,0-15.39,12.39-25,33.13-25C167.36,9.48,183,18.61,183,38.3H172.83C173,24.61,162,18.74,147.27,18.74s-23,5.87-23,15.39c0,11.61,12.26,14.22,25.56,17.61,18.91,4.95,35.74,9.39,35.74,26.86,0,15.65-13.31,25.31-35.09,25.31-21.26,0-37.69-9.13-37.69-28.83Z"/><path class="cls-1" d="M218.48,11.05v91.29h-10V11.05Z"/><path class="cls-2" d="M251.61,75.08c-.13,13.83,11.74,19.57,27.65,19.57s24.65-5.87,24.65-15.52c0-11.87-13-14-28.3-17.87-16.69-4.18-33-9-33-26.74,0-15.39,12.39-25,33.13-25,20.22,0,35.87,9.13,35.87,28.82H301.43c.13-13.69-10.82-19.56-25.56-19.56s-23,5.87-23,15.39c0,11.61,12.26,14.22,25.56,17.61,18.91,4.95,35.73,9.39,35.73,26.86,0,15.65-13.3,25.31-35.08,25.31-21.26,0-37.69-9.13-37.69-28.83Z"/><path class="cls-2" d="M340.3,75.08C340.17,88.91,352,94.65,368,94.65s24.65-5.87,24.65-15.52c0-11.87-13-14-28.3-17.87-16.69-4.18-33-9-33-26.74,0-15.39,12.39-25,33.13-25,20.22,0,35.87,9.13,35.87,28.82H390.12c.13-13.69-10.82-19.56-25.56-19.56s-22.95,5.87-22.95,15.39c0,11.61,12.26,14.22,25.56,17.61,18.91,4.95,35.73,9.39,35.73,26.86,0,15.65-13.3,25.31-35.08,25.31-21.26,0-37.69-9.13-37.69-28.83Z"/><path class="cls-1" d="M412.3,20.44V11.05h76.55v9.39H455.6v81.9H445.55V20.44Z"/><path class="cls-1" d="M517.81,11.05v91.29h-10V11.05Z"/><path class="cls-1" d="M547.29,11.05h63.12v9.39H557.33V56.17h48.25v9.39H557.33v36.78h-10Z"/><path class="cls-1" d="M621.37,11.05h12.26L666.1,58.78l32.48-47.73h12.26L671.19,69v33.39H661V69Z"/></svg>