<svg id="Capa_1" data-name="Capa 1" xmlns="http://www.w3.org/2000/svg" viewBox="0 0 841.89 213.73"><defs><style>.cls-1{fill:#fff;stroke:#fff;stroke-width:4.64px;}.cls-1,.cls-2{stroke-miterlimit:10;}.cls-2{fill:#d31035;stroke:#d31035;stroke-width:10px;}</style></defs><path class="cls-1" d="M132.23,54.21h11.35l41.34,91.29H173.71l-8.87-20h-54l-8.87,20H90.76Zm28.43,62-22.82-51-22.69,51Z"/><path class="cls-1" d="M202.92,118.24c-.13,13.83,11.74,19.57,27.65,19.57s24.65-5.87,24.65-15.52c0-11.87-13-14-28.3-17.87-16.69-4.17-33-9-33-26.74,0-15.39,12.39-25,33.12-25,20.22,0,35.87,9.13,35.87,28.83H252.75c.13-13.7-10.83-19.57-25.57-19.57s-23,5.87-23,15.39c0,11.61,12.26,14.22,25.56,17.61,18.91,5,35.74,9.39,35.74,26.87,0,15.65-13.31,25.3-35.09,25.3-21.26,0-37.69-9.13-37.69-28.83Z"/><path class="cls-1" d="M298.4,54.21V145.5h-10V54.21Z"/><path class="cls-2" d="M331.52,118.24c-.13,13.83,11.74,19.57,27.65,19.57s24.65-5.87,24.65-15.52c0-11.87-13-14-28.3-17.87-16.69-4.17-33-9-33-26.74,0-15.39,12.39-25,33.13-25,20.22,0,35.87,9.13,35.87,28.83H381.34c.14-13.7-10.82-19.57-25.56-19.57s-22.95,5.87-22.95,15.39c0,11.61,12.26,14.22,25.56,17.61,18.91,5,35.74,9.39,35.74,26.87,0,15.65-13.31,25.3-35.09,25.3-21.26,0-37.69-9.13-37.69-28.83Z"/><path class="cls-2" d="M420.21,118.24c-.13,13.83,11.74,19.57,27.65,19.57s24.65-5.87,24.65-15.52c0-11.87-13-14-28.3-17.87-16.69-4.17-33-9-33-26.74,0-15.39,12.39-25,33.13-25,20.22,0,35.87,9.13,35.87,28.83H470c.13-13.7-10.82-19.57-25.56-19.57s-23,5.87-23,15.39c0,11.61,12.26,14.22,25.56,17.61,18.91,5,35.74,9.39,35.74,26.87,0,15.65-13.31,25.3-35.09,25.3-21.26,0-37.69-9.13-37.69-28.83Z"/><path class="cls-1" d="M492.21,63.6V54.21h76.56V63.6H535.51v81.9h-10V63.6Z"/><path class="cls-1" d="M597.72,54.21V145.5h-10V54.21Z"/><path class="cls-1" d="M627.2,54.21h63.12V63.6H637.24V99.33H685.5v9.39H637.24V145.5h-10Z"/><path class="cls-1" d="M701.28,54.21h12.26L746,101.94l32.48-47.73h12.26l-39.65,57.9V145.5H740.93V112.11Z"/></svg>